{"asset":{"version":"2.0","generator":"Blockbench 4.1.1 glTF exporter"},"scenes":[{"nodes":[12],"name":"blockbench_export"}],"scene":0,"nodes":[{"translation":[0,0.0625,0],"name":"head","mesh":0},{"translation":[0,1.5,0],"name":"head","children":[0]},{"translation":[0,-1.125,0],"name":"body","mesh":1},{"translation":[0,1.125,0],"name":"body","children":[2]},{"translation":[0.0625,0.125,0],"name":"left_arm","mesh":2},{"translation":[-0.3125,1.375,0],"name":"left_arm","children":[4]},{"translation":[0.5625,0.0625,0],"name":"right_arm","mesh":3},{"translation":[-0.3125,1.375,0],"name":"right_arm","children":[6]},{"translation":[-0.30625,-0.0625,0],"name":"left_leg","mesh":4},{"translation":[0.11875,0.75,0],"name":"left_leg","children":[8]},{"translation":[0.18125,-0.0625,0],"name":"right_leg","mesh":5},{"translation":[-0.11875,0.75,0],"name":"right_leg","children":[10]},{"children":[1,3,5,7,9,11]}],"bufferViews":[{"buffer":0,"byteOffset":0,"byteLength":288,"target":34962,"byteStride":12},{"buffer":0,"byteOffset":288,"byteLength":288,"target":34962,"byteStride":12},{"buffer":0,"byteOffset":576,"byteLength":192,"target":34962,"byteStride":8},{"buffer":0,"byteOffset":768,"byteLength":72,"target":34963},{"buffer":0,"byteOffset":840,"byteLength":288,"target":34962,"byteStride":12},{"buffer":0,"byteOffset":1128,"byteLength":288,"target":34962,"byteStride":12},{"buffer":0,"byteOffset":1416,"byteLength":192,"target":34962,"byteStride":8},{"buffer":0,"byteOffset":1608,"byteLength":72,"target":34963},{"buffer":0,"byteOffset":1680,"byteLength":288,"target":34962,"byteStride":12},{"buffer":0,"byteOffset":1968,"byteLength":288,"target":34962,"byteStride":12},{"buffer":0,"byteOffset":2256,"byteLength":192,"target":34962,"byteStride":8},{"buffer":0,"byteOffset":2448,"byteLength":72,"target":34963},{"buffer":0,"byteOffset":2520,"byteLength":288,"target":34962,"byteStride":12},{"buffer":0,"byteOffset":2808,"byteLength":288,"target":34962,"byteStride":12},{"buffer":0,"byteOffset":3096,"byteLength":192,"target":34962,"byteStride":8},{"buffer":0,"byteOffset":3288,"byteLength":72,"target":34963},{"buffer":0,"byteOffset":3360,"byteLength":288,"target":34962,"byteStride":12},{"buffer":0,"byteOffset":3648,"byteLength":288,"target":34962,"byteStride":12},{"buffer":0,"byteOffset":3936,"byteLength":192,"target":34962,"byteStride":8},{"buffer":0,"byteOffset":4128,"byteLength":72,"target":34963},{"buffer":0,"byteOffset":4200,"byteLength":288,"target":34962,"byteStride":12},{"buffer":0,"byteOffset":4488,"byteLength":288,"target":34962,"byteStride":12},{"buffer":0,"byteOffset":4776,"byteLength":192,"target":34962,"byteStride":8},{"buffer":0,"byteOffset":4968,"byteLength":72,"target":34963},{"buffer":0,"byteOffset":5040,"byteLength":20},{"buffer":0,"byteOffset":5060,"byteLength":80},{"buffer":0,"byteOffset":5140,"byteLength":4},{"buffer":0,"byteOffset":5144,"byteLength":12},{"buffer":0,"byteOffset":5156,"byteLength":20},{"buffer":0,"byteOffset":5176,"byteLength":80},{"buffer":0,"byteOffset":5256,"byteLength":16},{"buffer":0,"byteOffset":5272,"byteLength":64},{"buffer":0,"byteOffset":5336,"byteLength":4},{"buffer":0,"byteOffset":5340,"byteLength":12},{"buffer":0,"byteOffset":5352,"byteLength":16},{"buffer":0,"byteOffset":5368,"byteLength":64},{"buffer":0,"byteOffset":5432,"byteLength":4},{"buffer":0,"byteOffset":5436,"byteLength":12},{"buffer":0,"byteOffset":5448,"byteLength":4},{"buffer":0,"byteOffset":5452,"byteLength":12},{"buffer":0,"byteOffset":5464,"byteLength":4},{"buffer":0,"byteOffset":5468,"byteLength":12},{"buffer":0,"byteOffset":5480,"byteLength":20},{"buffer":0,"byteOffset":5500,"byteLength":80},{"buffer":0,"byteOffset":5580,"byteLength":4},{"buffer":0,"byteOffset":5584,"byteLength":12},{"buffer":0,"byteOffset":5596,"byteLength":20},{"buffer":0,"byteOffset":5616,"byteLength":80},{"buffer":0,"byteOffset":5696,"byteLength":16},{"buffer":0,"byteOffset":5712,"byteLength":64},{"buffer":0,"byteOffset":5776,"byteLength":4},{"buffer":0,"byteOffset":5780,"byteLength":12},{"buffer":0,"byteOffset":5792,"byteLength":16},{"buffer":0,"byteOffset":5808,"byteLength":64},{"buffer":0,"byteOffset":5872,"byteLength":4},{"buffer":0,"byteOffset":5876,"byteLength":12},{"buffer":0,"byteOffset":5888,"byteLength":4},{"buffer":0,"byteOffset":5892,"byteLength":12},{"buffer":0,"byteOffset":5904,"byteLength":4},{"buffer":0,"byteOffset":5908,"byteLength":12},{"buffer":0,"byteOffset":5920,"byteLength":20},{"buffer":0,"byteOffset":5940,"byteLength":80},{"buffer":0,"byteOffset":6020,"byteLength":4},{"buffer":0,"byteOffset":6024,"byteLength":12},{"buffer":0,"byteOffset":6036,"byteLength":20},{"buffer":0,"byteOffset":6056,"byteLength":80},{"buffer":0,"byteOffset":6136,"byteLength":16},{"buffer":0,"byteOffset":6152,"byteLength":64},{"buffer":0,"byteOffset":6216,"byteLength":4},{"buffer":0,"byteOffset":6220,"byteLength":12},{"buffer":0,"byteOffset":6232,"byteLength":16},{"buffer":0,"byteOffset":6248,"byteLength":64},{"buffer":0,"byteOffset":6312,"byteLength":4},{"buffer":0,"byteOffset":6316,"byteLength":12},{"buffer":0,"byteOffset":6328,"byteLength":36},{"buffer":0,"byteOffset":6364,"byteLength":144},{"buffer":0,"byteOffset":6508,"byteLength":4},{"buffer":0,"byteOffset":6512,"byteLength":12},{"buffer":0,"byteOffset":6524,"byteLength":24},{"buffer":0,"byteOffset":6548,"byteLength":96},{"buffer":0,"byteOffset":6644,"byteLength":4},{"buffer":0,"byteOffset":6648,"byteLength":12}],"buffers":[{"byteLength":6660,"uri":"data:application/octet-stream;base64,"}],"accessors":[{"bufferView":0,"componentType":5126,"count":24,"max":[0.25,0.4375,0.25],"min":[-0.25,-0.0625,-0.25],"type":"VEC3"},{"bufferView":1,"componentType":5126,"count":24,"max":[1,1,1],"min":[-1,-1,-1],"type":"VEC3"},{"bufferView":2,"componentType":5126,"count":24,"max":[0.4392385482788086,0.9997854232788086],"min":[0.00021457672119140625,0.7804880142211914],"type":"VEC2"},{"bufferView":3,"componentType":5123,"count":36,"max":[23],"min":[0],"type":"SCALAR"},{"bufferView":4,"componentType":5126,"count":24,"max":[0.25,1.5,0.125],"min":[-0.25,0.75,-0.125],"type":"VEC3"},{"bufferView":5,"componentType":5126,"count":24,"max":[1,1,1],"min":[-1,-1,-1],"type":"VEC3"},{"bufferView":6,"componentType":5126,"count":24,"max":[0.5491018295288086,0.7800588607788086],"min":[0.2199411392211914,0.5607614517211914],"type":"VEC2"},{"bufferView":7,"componentType":5123,"count":36,"max":[23],"min":[0],"type":"SCALAR"},{"bufferView":8,"componentType":5126,"count":24,"max":[0,0,0.125],"min":[-0.25,-0.75,-0.125],"type":"VEC3"},{"bufferView":9,"componentType":5126,"count":24,"max":[1,1,1],"min":[-1,-1,-1],"type":"VEC3"},{"bufferView":10,"componentType":5126,"count":24,"max":[0.7688283920288086,0.7800588607788086],"min":[0.5495309829711914,0.5607614517211914],"type":"VEC2"},{"bufferView":11,"componentType":5123,"count":36,"max":[23],"min":[0],"type":"SCALAR"},{"bufferView":12,"componentType":5126,"count":24,"max":[0.25,0.0625,0.125],"min":[0,-0.6875,-0.125],"type":"VEC3"},{"bufferView":13,"componentType":5126,"count":24,"max":[1,1,1],"min":[-1,-1,-1],"type":"VEC3"},{"bufferView":14,"componentType":5126,"count":24,"max":[0.7688283920288086,0.7800588607788086],"min":[0.5495309829711914,0.5607614517211914],"type":"VEC2"},{"bufferView":15,"componentType":5123,"count":36,"max":[23],"min":[0],"type":"SCALAR"},{"bufferView":16,"componentType":5126,"count":24,"max":[0.1875,0.0625,0.125],"min":[-0.0625,-0.6875,-0.125],"type":"VEC3"},{"bufferView":17,"componentType":5126,"count":24,"max":[1,1,1],"min":[-1,-1,-1],"type":"VEC3"},{"bufferView":18,"componentType":5126,"count":24,"max":[0.2195119857788086,0.7800588607788086],"min":[0.00021457672119140625,0.5607614517211914],"type":"VEC2"},{"bufferView":19,"componentType":5123,"count":36,"max":[23],"min":[0],"type":"SCALAR"},{"bufferView":20,"componentType":5126,"count":24,"max":[0.1875,0.0625,0.125],"min":[-0.0625,-0.6875,-0.125],"type":"VEC3"},{"bufferView":21,"componentType":5126,"count":24,"max":[1,1,1],"min":[-1,-1,-1],"type":"VEC3"},{"bufferView":22,"componentType":5126,"count":24,"max":[0.2195119857788086,0.7800588607788086],"min":[0.00021457672119140625,0.5607614517211914],"type":"VEC2"},{"bufferView":23,"componentType":5123,"count":36,"max":[23],"min":[0],"type":"SCALAR"},{"bufferView":24,"componentType":5126,"count":5,"max":[1.0416666269302368],"min":[0],"type":"SCALAR"},{"bufferView":25,"componentType":5126,"count":5,"max":[-0.13977670669555664,0.07192512601613998,-0.005456228274852037,0.987552285194397],"min":[-0.2883796989917755,0.0702580064535141,-0.01633422076702118,0.9547953605651855],"type":"VEC4"},{"bufferView":26,"componentType":5126,"count":1,"max":[0],"min":[0],"type":"SCALAR"},{"bufferView":27,"componentType":5126,"count":1,"max":[0,1.40625,-0.25],"min":[0,1.40625,-0.25],"type":"VEC3"},{"bufferView":28,"componentType":5126,"count":5,"max":[1.0416666269302368],"min":[0],"type":"SCALAR"},{"bufferView":29,"componentType":5126,"count":5,"max":[-0.258819043636322,0,0,0.9659258127212524],"min":[-0.30070579051971436,0,0,0.9537169337272644],"type":"VEC4"},{"bufferView":30,"componentType":5126,"count":4,"max":[0.875],"min":[0.125],"type":"SCALAR"},{"bufferView":31,"componentType":5126,"count":4,"max":[0,0,0,1],"min":[0,0,-0.04361938685178757,0.9990482330322266],"type":"VEC4"},{"bufferView":32,"componentType":5126,"count":1,"max":[0],"min":[0],"type":"SCALAR"},{"bufferView":33,"componentType":5126,"count":1,"max":[-0.3125,1.375,-0.0625],"min":[-0.3125,1.375,-0.0625],"type":"VEC3"},{"bufferView":34,"componentType":5126,"count":4,"max":[0.875],"min":[0.125],"type":"SCALAR"},{"bufferView":35,"componentType":5126,"count":4,"max":[0,0,0.02181488461792469,1],"min":[0,0,0,0.9997619986534119],"type":"VEC4"},{"bufferView":36,"componentType":5126,"count":1,"max":[0],"min":[0],"type":"SCALAR"},{"bufferView":37,"componentType":5126,"count":1,"max":[-0.3125,1.375,-0.09375],"min":[-0.3125,1.375,-0.09375],"type":"VEC3"},{"bufferView":38,"componentType":5126,"count":1,"max":[0],"min":[0],"type":"SCALAR"},{"bufferView":39,"componentType":5126,"count":1,"max":[0.11874999850988388,0.75,0.1875],"min":[0.11874999850988388,0.75,0.1875],"type":"VEC3"},{"bufferView":40,"componentType":5126,"count":1,"max":[0],"min":[0],"type":"SCALAR"},{"bufferView":41,"componentType":5126,"count":1,"max":[-0.11874999850988388,0.75,0.1875],"min":[-0.11874999850988388,0.75,0.1875],"type":"VEC3"},{"bufferView":42,"componentType":5126,"count":5,"max":[1.041700005531311],"min":[0],"type":"SCALAR"},{"bufferView":43,"componentType":5126,"count":5,"max":[-0.13977673649787903,0.07192513346672058,-0.0054561966098845005,0.987552285194397],"min":[-0.2883797287940979,0.07025802135467529,-0.016334189102053642,0.9547953605651855],"type":"VEC4"},{"bufferView":44,"componentType":5126,"count":1,"max":[0],"min":[0],"type":"SCALAR"},{"bufferView":45,"componentType":5126,"count":1,"max":[0,1.40625,-0.25],"min":[0,1.40625,-0.25],"type":"VEC3"},{"bufferView":46,"componentType":5126,"count":5,"max":[1.041700005531311],"min":[0],"type":"SCALAR"},{"bufferView":47,"componentType":5126,"count":5,"max":[-0.258819043636322,0,0,0.9659258127212524],"min":[-0.30070579051971436,0,0,0.9537169337272644],"type":"VEC4"},{"bufferView":48,"componentType":5126,"count":4,"max":[0.875],"min":[0.125],"type":"SCALAR"},{"bufferView":49,"componentType":5126,"count":4,"max":[0,0,0,1],"min":[0,0,-0.04361938685178757,0.9990482330322266],"type":"VEC4"},{"bufferView":50,"componentType":5126,"count":1,"max":[0],"min":[0],"type":"SCALAR"},{"bufferView":51,"componentType":5126,"count":1,"max":[-0.3125,1.375,-0.0625],"min":[-0.3125,1.375,-0.0625],"type":"VEC3"},{"bufferView":52,"componentType":5126,"count":4,"max":[0.875],"min":[0.125],"type":"SCALAR"},{"bufferView":53,"componentType":5126,"count":4,"max":[0,0,0.02181488461792469,1],"min":[0,0,0,0.9997619986534119],"type":"VEC4"},{"bufferView":54,"componentType":5126,"count":1,"max":[0],"min":[0],"type":"SCALAR"},{"bufferView":55,"componentType":5126,"count":1,"max":[-0.3125,1.375,-0.09375],"min":[-0.3125,1.375,-0.09375],"type":"VEC3"},{"bufferView":56,"componentType":5126,"count":1,"max":[0],"min":[0],"type":"SCALAR"},{"bufferView":57,"componentType":5126,"count":1,"max":[0.11874999850988388,0.75,0.1875],"min":[0.11874999850988388,0.75,0.1875],"type":"VEC3"},{"bufferView":58,"componentType":5126,"count":1,"max":[0],"min":[0],"type":"SCALAR"},{"bufferView":59,"componentType":5126,"count":1,"max":[-0.11874999850988388,0.75,0.1875],"min":[-0.11874999850988388,0.75,0.1875],"type":"VEC3"},{"bufferView":60,"componentType":5126,"count":5,"max":[1.0416666269302368],"min":[0],"type":"SCALAR"},{"bufferView":61,"componentType":5126,"count":5,"max":[-0.13977673649787903,0.07192513346672058,-0.0054561966098845005,0.987552285194397],"min":[-0.2883797287940979,0.07025802135467529,-0.016334189102053642,0.9547953605651855],"type":"VEC4"},{"bufferView":62,"componentType":5126,"count":1,"max":[0],"min":[0],"type":"SCALAR"},{"bufferView":63,"componentType":5126,"count":1,"max":[0,1.40625,-0.25],"min":[0,1.40625,-0.25],"type":"VEC3"},{"bufferView":64,"componentType":5126,"count":5,"max":[1.0416666269302368],"min":[0],"type":"SCALAR"},{"bufferView":65,"componentType":5126,"count":5,"max":[-0.258819043636322,0,0,0.9659258127212524],"min":[-0.30070579051971436,0,0,0.9537169337272644],"type":"VEC4"},{"bufferView":66,"componentType":5126,"count":4,"max":[0.875],"min":[0.125],"type":"SCALAR"},{"bufferView":67,"componentType":5126,"count":4,"max":[0,0,0,1],"min":[0,0,-0.04361938685178757,0.9990482330322266],"type":"VEC4"},{"bufferView":68,"componentType":5126,"count":1,"max":[0],"min":[0],"type":"SCALAR"},{"bufferView":69,"componentType":5126,"count":1,"max":[-0.3125,1.375,-0.0625],"min":[-0.3125,1.375,-0.0625],"type":"VEC3"},{"bufferView":70,"componentType":5126,"count":4,"max":[0.875],"min":[0.125],"type":"SCALAR"},{"bufferView":71,"componentType":5126,"count":4,"max":[0,0,0.02181488461792469,1],"min":[0,0,0,0.9997619986534119],"type":"VEC4"},{"bufferView":72,"componentType":5126,"count":1,"max":[0],"min":[0],"type":"SCALAR"},{"bufferView":73,"componentType":5126,"count":1,"max":[-0.3125,1.375,-0.09375],"min":[-0.3125,1.375,-0.09375],"type":"VEC3"},{"bufferView":74,"componentType":5126,"count":9,"max":[1.125],"min":[0],"type":"SCALAR"},{"bufferView":75,"componentType":5126,"count":9,"max":[0.10886687785387039,0,0,0.9997619986534119],"min":[-0.3214394748210907,0,0,0.9469301104545593],"type":"VEC4"},{"bufferView":76,"componentType":5126,"count":1,"max":[0],"min":[0],"type":"SCALAR"},{"bufferView":77,"componentType":5126,"count":1,"max":[0.11874999850988388,0.75,0.1875],"min":[0.11874999850988388,0.75,0.1875],"type":"VEC3"},{"bufferView":78,"componentType":5126,"count":6,"max":[1.125],"min":[0],"type":"SCALAR"},{"bufferView":79,"componentType":5126,"count":6,"max":[0.258819043636322,0,0,0.9997619986534119],"min":[-0.1736481785774231,0,0,0.9659258127212524],"type":"VEC4"},{"bufferView":80,"componentType":5126,"count":1,"max":[0],"min":[0],"type":"SCALAR"},{"bufferView":81,"componentType":5126,"count":1,"max":[-0.11874999850988388,0.75,0.1875],"min":[-0.11874999850988388,0.75,0.1875],"type":"VEC3"}],"materials":[{"pbrMetallicRoughness":{"metallicFactor":0,"roughnessFactor":1,"baseColorTexture":{"index":0}},"alphaMode":"MASK","alphaCutoff":0.05,"doubleSided":true}],"textures":[{"sampler":0,"source":0,"name":"download.png"}],"samplers":[{"magFilter":9728,"minFilter":9728,"wrapS":33071,"wrapT":33071}],"images":[{"mimeType":"image/png","uri":"data:image/png;base64,"}],"meshes":[{"primitives":[{"mode":4,"attributes":{"POSITION":0,"NORMAL":1,"TEXCOORD_0":2},"indices":3,"material":0}]},{"primitives":[{"mode":4,"attributes":{"POSITION":4,"NORMAL":5,"TEXCOORD_0":6},"indices":7,"material":0}]},{"primitives":[{"mode":4,"attributes":{"POSITION":8,"NORMAL":9,"TEXCOORD_0":10},"indices":11,"material":0}]},{"primitives":[{"mode":4,"attributes":{"POSITION":12,"NORMAL":13,"TEXCOORD_0":14},"indices":15,"material":0}]},{"primitives":[{"mode":4,"attributes":{"POSITION":16,"NORMAL":17,"TEXCOORD_0":18},"indices":19,"material":0}]},{"primitives":[{"mode":4,"attributes":{"POSITION":20,"NORMAL":21,"TEXCOORD_0":22},"indices":23,"material":0}]}],"animations":[{"name":"animation.better:zombie.idle","samplers":[{"input":24,"output":25,"interpolation":"LINEAR"},{"input":26,"output":27,"interpolation":"LINEAR"},{"input":28,"output":29,"interpolation":"LINEAR"},{"input":30,"output":31,"interpolation":"LINEAR"},{"input":32,"output":33,"interpolation":"LINEAR"},{"input":34,"output":35,"interpolation":"LINEAR"},{"input":36,"output":37,"interpolation":"LINEAR"},{"input":38,"output":39,"interpolation":"LINEAR"},{"input":40,"output":41,"interpolation":"LINEAR"}],"channels":[{"sampler":0,"target":{"node":1,"path":"rotation"}},{"sampler":1,"target":{"node":1,"path":"translation"}},{"sampler":2,"target":{"node":3,"path":"rotation"}},{"sampler":3,"target":{"node":5,"path":"rotation"}},{"sampler":4,"target":{"node":5,"path":"translation"}},{"sampler":5,"target":{"node":7,"path":"rotation"}},{"sampler":6,"target":{"node":7,"path":"translation"}},{"sampler":7,"target":{"node":9,"path":"translation"}},{"sampler":8,"target":{"node":11,"path":"translation"}}]},{"name":"better:zombie.idle","samplers":[{"input":42,"output":43,"interpolation":"LINEAR"},{"input":44,"output":45,"interpolation":"LINEAR"},{"input":46,"output":47,"interpolation":"LINEAR"},{"input":48,"output":49,"interpolation":"LINEAR"},{"input":50,"output":51,"interpolation":"LINEAR"},{"input":52,"output":53,"interpolation":"LINEAR"},{"input":54,"output":55,"interpolation":"LINEAR"},{"input":56,"output":57,"interpolation":"LINEAR"},{"input":58,"output":59,"interpolation":"LINEAR"}],"channels":[{"sampler":0,"target":{"node":1,"path":"rotation"}},{"sampler":1,"target":{"node":1,"path":"translation"}},{"sampler":2,"target":{"node":3,"path":"rotation"}},{"sampler":3,"target":{"node":5,"path":"rotation"}},{"sampler":4,"target":{"node":5,"path":"translation"}},{"sampler":5,"target":{"node":7,"path":"rotation"}},{"sampler":6,"target":{"node":7,"path":"translation"}},{"sampler":7,"target":{"node":9,"path":"translation"}},{"sampler":8,"target":{"node":11,"path":"translation"}}]},{"name":"animation.better_zombie.walking","samplers":[{"input":60,"output":61,"interpolation":"LINEAR"},{"input":62,"output":63,"interpolation":"LINEAR"},{"input":64,"output":65,"interpolation":"LINEAR"},{"input":66,"output":67,"interpolation":"LINEAR"},{"input":68,"output":69,"interpolation":"LINEAR"},{"input":70,"output":71,"interpolation":"LINEAR"},{"input":72,"output":73,"interpolation":"LINEAR"},{"input":74,"output":75,"interpolation":"LINEAR"},{"input":76,"output":77,"interpolation":"LINEAR"},{"input":78,"output":79,"interpolation":"LINEAR"},{"input":80,"output":81,"interpolation":"LINEAR"}],"channels":[{"sampler":0,"target":{"node":1,"path":"rotation"}},{"sampler":1,"target":{"node":1,"path":"translation"}},{"sampler":2,"target":{"node":3,"path":"rotation"}},{"sampler":3,"target":{"node":5,"path":"rotation"}},{"sampler":4,"target":{"node":5,"path":"translation"}},{"sampler":5,"target":{"node":7,"path":"rotation"}},{"sampler":6,"target":{"node":7,"path":"translation"}},{"sampler":7,"target":{"node":9,"path":"rotation"}},{"sampler":8,"target":{"node":9,"path":"translation"}},{"sampler":9,"target":{"node":11,"path":"rotation"}},{"sampler":10,"target":{"node":11,"path":"translation"}}]}]}